Coordinates
version=1
nRows=14
nColumns=40
inDegrees=yes

Units are S.I. units (second, meters, Newtons, ...)
Angles are in degrees.

endheader
time	pelvis_tilt	pelvis_list	pelvis_rotation	pelvis_tx	pelvis_ty	pelvis_tz	hip_flexion_r	hip_adduction_r	hip_rotation_r	knee_angle_r	knee_angle_r_beta	ankle_angle_r	subtalar_angle_r	mtp_angle_r	hip_flexion_l	hip_adduction_l	hip_rotation_l	knee_angle_l	knee_angle_l_beta	ankle_angle_l	subtalar_angle_l	mtp_angle_l	lumbar_extension	lumbar_bending	lumbar_rotation	arm_flex_r	arm_add_r	arm_rot_r	elbow_flex_r	pro_sup_r	wrist_flex_r	wrist_dev_r	arm_flex_l	arm_add_l	arm_rot_l	elbow_flex_l	pro_sup_l	wrist_flex_l	wrist_dev_l
     40.10000000	     -2.34593630	     -4.71639366	      0.37391809	      1.11005157	      0.93314319	      0.46314576	     31.92440055	     -6.11737045	     -8.15895387	     67.38950308	     67.38950308	      1.56806406	    -19.42656090	     17.12936924	     14.80763969	     -4.84071961	     -4.87559631	     23.43397944	     23.43397944	     12.87722448	    -15.43079023	      3.02280183	    -12.52017942	      3.60717138	      0.70778917	      3.96905040	    -14.43822623	     -7.59886909	     33.66008993	     45.60310626	      0.00000000	      0.00000000	      6.36527311	    -15.51726402	     -6.65870015	     46.54301646	     45.67945620	      0.00000000	      0.00000000
     40.11385714	     -2.44804789	     -4.93296176	     -0.00591690	      1.10875591	      0.93376858	      0.46307432	     32.50708494	     -5.38625607	     -8.11211162	     65.05169192	     65.05169192	      1.62884002	    -19.29550639	     15.88507085	     14.30968333	     -5.14384047	     -5.35425845	     23.02679023	     23.02679023	     13.02886487	    -15.08989173	      2.73322201	    -12.57526259	      3.87323406	      0.76794347	      3.75605734	    -14.51257259	     -7.74698325	     32.07227706	     45.69601481	      0.00000000	      0.00000000	      6.56210423	    -15.46127181	     -6.49440909	     47.00725169	     45.71875324	      0.00000000	      0.00000000
     40.12771429	     -2.49737412	     -5.13747502	     -0.36034800	      1.10747567	      0.93445437	      0.46295516	     32.81762484	     -4.69657665	     -8.13257338	     62.32365102	     62.32365102	      1.17224362	    -19.13646025	     13.15973343	     13.73147320	     -5.38937929	     -5.70647771	     22.56474971	     22.56474971	     13.08673301	    -14.97535708	      2.45843646	    -12.70634984	      4.13408198	      0.56604758	      3.92466103	    -14.41946664	     -8.42137266	     30.08740765	     45.85326160	      0.00000000	      0.00000000	      6.45384314	    -15.60340942	     -6.13357547	     47.79165043	     45.76178422	      0.00000000	      0.00000000
     40.14157143	     -2.65803790	     -5.35188262	     -0.71265979	      1.10614784	      0.93493666	      0.46292977	     33.20245568	     -3.91245830	     -8.04510594	     59.44704075	     59.44704075	      1.42137089	    -18.79894081	     12.95956103	     13.29605909	     -5.62282806	     -5.95315661	     22.12799441	     22.12799441	     13.20645638	    -14.95811028	      2.50469925	    -12.71530817	      4.42390289	      0.43418537	      3.48798383	    -14.51014067	     -8.52213694	     29.67686720	     45.87711561	      0.00000000	      0.00000000	      6.55913059	    -15.59244458	     -6.10188401	     48.03621594	     45.76970227	      0.00000000	      0.00000000
     40.15542857	     -2.66542056	     -5.50397418	     -1.07820561	      1.10495745	      0.93552444	      0.46290342	     33.04446319	     -3.32575472	     -8.16063766	     55.87742104	     55.87742104	      0.06750633	    -18.52020920	      7.48704201	     12.66578401	     -5.83238372	     -6.43886716	     21.66207027	     21.66207027	     13.23542032	    -14.69389012	      1.98510109	    -12.91249964	      4.61217464	      0.29031457	      4.02502955	    -14.35688427	     -9.94558541	     27.01679306	     46.13424429	      0.00000000	      0.00000000	      6.35125887	    -15.83348199	     -5.38078771	     49.24971390	     45.80218662	      0.00000000	      0.00000000
     40.16928571	     -2.87336651	     -5.65456962	     -1.42255818	      1.10365665	      0.93574835	      0.46300090	     33.17941113	     -2.65376123	     -8.12819339	     52.36951865	     52.36951865	      0.39927550	    -17.63602603	      7.35778817	     12.30881545	     -5.99610364	     -6.68253121	     21.26404986	     21.26404986	     13.36927315	    -14.69213766	      2.01440117	    -12.88243559	      4.83186900	      0.22546160	      3.63304441	    -14.45639909	    -10.06731402	     26.71337024	     46.15621710	      0.00000000	      0.00000000	      6.45074201	    -15.76502773	     -5.35093835	     49.49550137	     45.81044333	      0.00000000	      0.00000000
     40.18314286	     -2.92127461	     -5.75073999	     -1.77777261	      1.10254172	      0.93604819	      0.46314195	     32.69915231	     -2.15572614	     -8.35377500	     48.00300818	     48.00300818	     -1.13140763	    -16.96828570	      1.32515938	     11.76063389	     -6.14878105	     -7.17055439	     20.86486409	     20.86486409	     13.42370149	    -14.41916979	      1.48146876	    -13.05085243	      4.96480539	      0.23639382	      3.89723189	    -14.38311552	    -11.65788634	     24.93003549	     46.39772769	      0.00000000	      0.00000000	      6.29126571	    -15.91634569	     -4.60394840	     50.71282423	     45.84881644	      0.00000000	      0.00000000
     40.19700000	     -3.04698053	     -5.81628082	     -2.13528470	      1.10140480	      0.93617558	      0.46341046	     32.34978007	     -1.64132860	     -8.48887509	     43.73784278	     43.73784278	     -0.80745262	    -15.23743585	      0.78464130	     11.30177919	     -6.23005537	     -7.48346782	     20.46526817	     20.46526817	     13.57652387	    -14.37506241	      1.46430028	    -13.13337936	      5.08887928	      0.23276193	      3.66182011	    -14.46888659	    -11.94660855	     24.70179445	     46.43609004	      0.00000000	      0.00000000	      6.41537838	    -15.82595954	     -4.53016235	     50.98222311	     45.86685832	      0.00000000	      0.00000000
     40.21085714	     -3.34003925	     -5.88080890	     -2.47360984	      1.10027803	      0.93590221	      0.46379910	     32.00627103	     -1.11756673	     -8.69148095	     39.17748754	     39.17748754	     -0.43813799	    -13.25204231	      0.61384581	     11.09696624	     -6.32838997	     -7.74802989	     20.18787616	     20.18787616	     13.73269523	    -14.35924558	      1.38728601	    -12.99957853	      5.23412507	      0.16403575	      3.44956522	    -14.54969806	    -12.07995396	     24.55761283	     46.45447366	      0.00000000	      0.00000000	      6.42416156	    -15.71950538	     -4.41652371	     51.22487002	     45.86801123	      0.00000000	      0.00000000
     40.22471429	     -3.60222415	     -5.89419108	     -2.85418612	      1.09930313	      0.93554645	      0.46438562	     31.43149820	     -0.62972856	     -8.94401863	     34.35954582	     34.35954582	     -0.16246203	    -10.84635925	      0.48570402	     10.83449230	     -6.38828835	     -8.08543758	     19.90482524	     19.90482524	     13.92715271	    -14.31557828	      1.25650061	    -12.87572056	      5.29302274	      0.17260387	      3.29692971	    -14.54379083	    -12.19446671	     24.45650552	     46.46939833	      0.00000000	      0.00000000	      6.43559366	    -15.65605763	     -4.28209068	     51.52028892	     45.86712178	      0.00000000	      0.00000000
     40.23857143	     -3.63430600	     -5.82804478	     -3.13155367	      1.09861839	      0.93530893	      0.46479988	     30.39684538	     -0.33883609	     -9.54354809	     29.39266182	     29.39266182	      0.03545725	     -7.85109980	      0.07946908	     10.33714529	     -6.35251755	     -8.45130289	     19.66225131	     19.66225131	     14.12550838	    -14.11962734	      0.97920931	    -13.04277872	      5.31798072	      0.15062369	      3.17229990	    -14.67924561	    -12.41094652	     24.38442223	     46.49386723	      0.00000000	      0.00000000	      6.41641918	    -15.53827063	     -4.01246571	     51.97066675	     45.86128379	      0.00000000	      0.00000000
     40.25242857	     -3.73325353	     -5.63252679	     -3.44845361	      1.09820888	      0.93466327	      0.46547183	     29.31884391	     -0.10442937	    -10.12864397	     24.41427091	     24.41427091	     -0.68721565	     -5.03368566	     -2.23103614	      9.85671056	     -6.19614040	     -8.92742431	     19.33533222	     19.33533222	     14.07809844	    -14.00405928	     -0.08327943	    -13.03033668	      5.13683677	      0.16724168	      2.99470130	    -14.54547438	    -13.83602071	     24.57880332	     46.62556453	      0.00000000	      0.00000000	      6.13014856	    -15.81247205	     -2.76716112	     53.04734618	     45.87665906	      0.00000000	      0.00000000
     40.26628571	     -3.87103605	     -5.47249020	     -3.72541015	      1.09792430	      0.93389606	      0.46622715	     28.37814646	      0.24111517	    -10.39466494	     20.03730013	     20.03730013	     -0.58326355	     -2.56151084	     -1.18363872	      9.49738618	     -6.06441968	     -9.20237171	     19.18390276	     19.18390276	     14.34277527	    -13.98096533	     -0.28579600	    -12.92887394	      5.08816659	      0.11561189	      2.89258560	    -14.55116198	    -13.93556502	     24.65225993	     46.63084493	      0.00000000	      0.00000000	      6.09355944	    -15.65948853	     -2.67025882	     53.13078850	     45.88158052	      0.00000000	      0.00000000
     40.28014286	     -3.91313015	     -5.28028355	     -3.99206430	      1.09794860	      0.93316501	      0.46715296	     27.44080571	      0.47645617	    -10.84247215	     16.37965334	     16.37965334	     -0.35490838	      0.03239731	      0.24455258	      8.98298639	     -5.90523298	     -9.56039821	     18.96887131	     18.96887131	     14.60700711	    -13.84677586	     -0.59150057	    -12.89057542	      4.92742607	      0.08152769	      2.79361485	    -14.52932943	    -14.04563058	     24.86577690	     46.63013605	      0.00000000	      0.00000000	      6.01045851	    -15.52303046	     -2.53431206	     53.25799039	     45.88455304	      0.00000000	      0.00000000
